<svg xmlns="http://www.w3.org/2000/svg" xmlns:xlink="http://www.w3.org/1999/xlink" width="500" zoomAndPan="magnify" viewBox="0 0 375 374.999991" height="500" preserveAspectRatio="xMidYMid meet" version="1.0"><defs><clipPath id="25e6d70b5d"><path d="M 30.433594 13.085938 L 344.683594 13.085938 L 344.683594 352.835938 L 30.433594 352.835938 Z M 30.433594 13.085938 " clip-rule="nonzero"/></clipPath></defs><g clip-path="url(#25e6d70b5d)"><path fill="#ffffff" d="M 153.894531 17.777344 C 153.894531 20.367188 151.796875 22.464844 149.207031 22.464844 C 146.617188 22.464844 144.519531 20.367188 144.519531 17.777344 C 144.519531 15.1875 146.617188 13.089844 149.207031 13.089844 C 151.796875 13.089844 153.894531 15.1875 153.894531 17.777344 Z M 196.089844 39.65625 C 196.089844 44.40625 192.242188 48.253906 187.496094 48.253906 C 182.75 48.253906 178.898438 44.40625 178.898438 39.65625 C 178.898438 34.910156 182.75 31.0625 187.496094 31.0625 C 192.242188 31.0625 196.089844 34.910156 196.089844 39.65625 Z M 187.496094 95.917969 C 193.96875 95.917969 199.214844 90.671875 199.214844 84.195312 C 199.214844 77.722656 193.96875 72.476562 187.496094 72.476562 C 181.023438 72.476562 175.773438 77.722656 175.773438 84.195312 C 175.773438 90.671875 181.023438 95.917969 187.496094 95.917969 Z M 160.929688 106.074219 C 160.929688 112.550781 155.679688 117.796875 149.207031 117.796875 C 142.734375 117.796875 137.484375 112.550781 137.484375 106.074219 C 137.484375 99.601562 142.734375 94.355469 149.207031 94.355469 C 155.679688 94.355469 160.929688 99.601562 160.929688 106.074219 Z M 122.640625 127.953125 C 122.640625 134.429688 117.390625 139.675781 110.917969 139.675781 C 104.445312 139.675781 99.199219 134.429688 99.199219 127.953125 C 99.199219 122.851562 102.457031 118.511719 107.011719 116.902344 L 107.011719 91.855469 C 104.226562 90.433594 102.324219 87.539062 102.324219 84.195312 C 102.324219 79.449219 106.171875 75.601562 110.917969 75.601562 C 115.664062 75.601562 119.511719 79.449219 119.511719 84.195312 C 119.511719 87.214844 117.957031 89.867188 115.605469 91.402344 L 115.605469 117.210938 C 119.746094 119.019531 122.640625 123.148438 122.640625 127.953125 Z M 122.640625 172.496094 C 122.640625 172.902344 122.617188 173.304688 122.578125 173.699219 L 140.707031 184.164062 C 143.007812 182.246094 145.972656 181.089844 149.207031 181.089844 C 156.542969 181.089844 162.492188 187.035156 162.492188 194.375 C 162.492188 200.351562 158.542969 205.40625 153.113281 207.074219 L 153.113281 226.214844 C 158.542969 227.882812 162.492188 232.9375 162.492188 238.914062 C 162.492188 246.25 156.542969 252.195312 149.207031 252.195312 C 141.871094 252.195312 135.921875 246.25 135.921875 238.914062 C 135.921875 233.226562 139.496094 228.375 144.519531 226.480469 L 144.519531 206.804688 C 139.496094 204.910156 135.921875 200.058594 135.921875 194.375 C 135.921875 193.390625 136.03125 192.429688 136.234375 191.507812 L 118.613281 181.335938 C 116.554688 183.128906 113.863281 184.214844 110.917969 184.214844 C 104.445312 184.214844 99.199219 178.96875 99.199219 172.496094 C 99.199219 166.019531 104.445312 160.773438 110.917969 160.773438 C 117.390625 160.773438 122.640625 166.019531 122.640625 172.496094 Z M 110.917969 227.976562 C 117.390625 227.976562 122.640625 222.726562 122.640625 216.253906 C 122.640625 209.78125 117.390625 204.53125 110.917969 204.53125 C 104.445312 204.53125 99.199219 209.78125 99.199219 216.253906 C 99.199219 222.726562 104.445312 227.976562 110.917969 227.976562 Z M 122.640625 260.011719 C 122.640625 266.484375 117.390625 271.730469 110.917969 271.730469 C 104.445312 271.730469 99.199219 266.484375 99.199219 260.011719 C 99.199219 253.539062 104.445312 248.289062 110.917969 248.289062 C 117.390625 248.289062 122.640625 253.539062 122.640625 260.011719 Z M 263.289062 184.214844 C 269.765625 184.214844 275.011719 178.96875 275.011719 172.496094 C 275.011719 166.019531 269.765625 160.773438 263.289062 160.773438 C 256.816406 160.773438 251.570312 166.019531 251.570312 172.496094 C 251.570312 173.148438 251.625 173.792969 251.726562 174.417969 L 251.625 174.242188 L 234.347656 184.21875 C 232.035156 182.265625 229.046875 181.089844 225.785156 181.089844 C 218.445312 181.089844 212.5 187.035156 212.5 194.375 C 212.5 200.058594 216.070312 204.910156 221.097656 206.804688 L 221.097656 226.480469 C 216.070312 228.375 212.5 233.226562 212.5 238.914062 C 212.5 246.25 218.445312 252.195312 225.785156 252.195312 C 233.121094 252.195312 239.066406 246.25 239.066406 238.914062 C 239.066406 232.9375 235.121094 227.882812 229.691406 226.214844 L 229.691406 207.074219 C 235.121094 205.40625 239.066406 200.351562 239.066406 194.375 C 239.066406 193.417969 238.964844 192.484375 238.773438 191.585938 L 255.921875 181.6875 L 255.839844 181.542969 C 257.863281 183.210938 260.460938 184.214844 263.289062 184.214844 Z M 275.011719 216.253906 C 275.011719 222.726562 269.765625 227.976562 263.289062 227.976562 C 256.816406 227.976562 251.570312 222.726562 251.570312 216.253906 C 251.570312 209.78125 256.816406 204.53125 263.289062 204.53125 C 269.765625 204.53125 275.011719 209.78125 275.011719 216.253906 Z M 263.289062 271.730469 C 269.765625 271.730469 275.011719 266.484375 275.011719 260.011719 C 275.011719 253.539062 269.765625 248.289062 263.289062 248.289062 C 256.816406 248.289062 251.570312 253.539062 251.570312 260.011719 C 251.570312 266.484375 256.816406 271.730469 263.289062 271.730469 Z M 149.207031 70.914062 C 153.953125 70.914062 157.800781 67.066406 157.800781 62.316406 C 157.800781 57.570312 153.953125 53.722656 149.207031 53.722656 C 144.460938 53.722656 140.613281 57.570312 140.613281 62.316406 C 140.613281 67.066406 144.460938 70.914062 149.207031 70.914062 Z M 234.378906 62.316406 C 234.378906 67.066406 230.53125 70.914062 225.785156 70.914062 C 221.035156 70.914062 217.1875 67.066406 217.1875 62.316406 C 217.1875 57.570312 221.035156 53.722656 225.785156 53.722656 C 230.53125 53.722656 234.378906 57.570312 234.378906 62.316406 Z M 271.886719 84.195312 C 271.886719 87.214844 270.332031 89.867188 267.980469 91.402344 L 267.980469 117.210938 C 272.117188 119.019531 275.011719 123.148438 275.011719 127.953125 C 275.011719 134.429688 269.765625 139.675781 263.289062 139.675781 C 256.816406 139.675781 251.570312 134.429688 251.570312 127.953125 C 251.570312 122.851562 254.832031 118.511719 259.382812 116.902344 L 259.382812 91.855469 C 256.601562 90.433594 254.695312 87.539062 254.695312 84.195312 C 254.695312 79.449219 258.542969 75.601562 263.289062 75.601562 C 268.039062 75.601562 271.886719 79.449219 271.886719 84.195312 Z M 271.886719 304.550781 C 271.886719 309.296875 268.039062 313.144531 263.289062 313.144531 C 258.542969 313.144531 254.695312 309.296875 254.695312 304.550781 C 254.695312 299.804688 258.542969 295.957031 263.289062 295.957031 C 268.039062 295.957031 271.886719 299.804688 271.886719 304.550781 Z M 79.664062 106.074219 C 79.664062 109.960938 76.515625 113.109375 72.628906 113.109375 C 68.746094 113.109375 65.597656 109.960938 65.597656 106.074219 C 65.597656 102.191406 68.746094 99.042969 72.628906 99.042969 C 76.515625 99.042969 79.664062 102.191406 79.664062 106.074219 Z M 72.628906 289.703125 C 76.515625 289.703125 79.664062 286.554688 79.664062 282.671875 C 79.664062 278.789062 76.515625 275.636719 72.628906 275.636719 C 68.746094 275.636719 65.597656 278.789062 65.597656 282.671875 C 65.597656 286.554688 68.746094 289.703125 72.628906 289.703125 Z M 153.894531 326.429688 C 153.894531 329.019531 151.796875 331.117188 149.207031 331.117188 C 146.617188 331.117188 144.519531 329.019531 144.519531 326.429688 C 144.519531 323.839844 146.617188 321.742188 149.207031 321.742188 C 151.796875 321.742188 153.894531 323.839844 153.894531 326.429688 Z M 187.496094 352.214844 C 189.652344 352.214844 191.402344 350.464844 191.402344 348.308594 C 191.402344 346.152344 189.652344 344.402344 187.496094 344.402344 C 185.335938 344.402344 183.589844 346.152344 183.589844 348.308594 C 183.589844 350.464844 185.335938 352.214844 187.496094 352.214844 Z M 114.824219 348.308594 C 114.824219 350.464844 113.074219 352.214844 110.917969 352.214844 C 108.761719 352.214844 107.011719 350.464844 107.011719 348.308594 C 107.011719 346.152344 108.761719 344.402344 110.917969 344.402344 C 113.074219 344.402344 114.824219 346.152344 114.824219 348.308594 Z M 263.289062 352.214844 C 265.449219 352.214844 267.199219 350.464844 267.199219 348.308594 C 267.199219 346.152344 265.449219 344.402344 263.289062 344.402344 C 261.132812 344.402344 259.382812 346.152344 259.382812 348.308594 C 259.382812 350.464844 261.132812 352.214844 263.289062 352.214844 Z M 110.917969 45.128906 C 113.507812 45.128906 115.605469 43.027344 115.605469 40.4375 C 115.605469 37.847656 113.507812 35.75 110.917969 35.75 C 108.328125 35.75 106.230469 37.847656 106.230469 40.4375 C 106.230469 43.027344 108.328125 45.128906 110.917969 45.128906 Z M 39.8125 172.496094 C 39.8125 175.082031 37.710938 177.183594 35.121094 177.183594 C 32.535156 177.183594 30.433594 175.082031 30.433594 172.496094 C 30.433594 169.90625 32.535156 167.804688 35.121094 167.804688 C 37.710938 167.804688 39.8125 169.90625 39.8125 172.496094 Z M 339.867188 177.183594 C 342.457031 177.183594 344.554688 175.082031 344.554688 172.496094 C 344.554688 169.90625 342.457031 167.804688 339.867188 167.804688 C 337.277344 167.804688 335.179688 169.90625 335.179688 172.496094 C 335.179688 175.082031 337.277344 177.183594 339.867188 177.183594 Z M 39.8125 216.253906 C 39.8125 218.84375 37.710938 220.941406 35.121094 220.941406 C 32.535156 220.941406 30.433594 218.84375 30.433594 216.253906 C 30.433594 213.664062 32.535156 211.5625 35.121094 211.5625 C 37.710938 211.5625 39.8125 213.664062 39.8125 216.253906 Z M 339.867188 220.941406 C 342.457031 220.941406 344.554688 218.84375 344.554688 216.253906 C 344.554688 213.664062 342.457031 211.5625 339.867188 211.5625 C 337.277344 211.5625 335.179688 213.664062 335.179688 216.253906 C 335.179688 218.84375 337.277344 220.941406 339.867188 220.941406 Z M 267.980469 40.4375 C 267.980469 43.027344 265.878906 45.128906 263.289062 45.128906 C 260.699219 45.128906 258.601562 43.027344 258.601562 40.4375 C 258.601562 37.847656 260.699219 35.75 263.289062 35.75 C 265.878906 35.75 267.980469 37.847656 267.980469 40.4375 Z M 225.785156 331.117188 C 228.371094 331.117188 230.472656 329.019531 230.472656 326.429688 C 230.472656 323.839844 228.371094 321.742188 225.785156 321.742188 C 223.195312 321.742188 221.097656 323.839844 221.097656 326.429688 C 221.097656 329.019531 223.195312 331.117188 225.785156 331.117188 Z M 230.472656 17.777344 C 230.472656 20.367188 228.371094 22.464844 225.785156 22.464844 C 223.195312 22.464844 221.097656 20.367188 221.097656 17.777344 C 221.097656 15.1875 223.195312 13.089844 225.785156 13.089844 C 228.371094 13.089844 230.472656 15.1875 230.472656 17.777344 Z M 301.578125 113.109375 C 305.464844 113.109375 308.609375 109.960938 308.609375 106.074219 C 308.609375 102.191406 305.464844 99.042969 301.578125 99.042969 C 297.695312 99.042969 294.546875 102.191406 294.546875 106.074219 C 294.546875 109.960938 297.695312 113.109375 301.578125 113.109375 Z M 308.609375 282.671875 C 308.609375 286.554688 305.464844 289.703125 301.578125 289.703125 C 297.695312 289.703125 294.546875 286.554688 294.546875 282.671875 C 294.546875 278.789062 297.695312 275.636719 301.578125 275.636719 C 305.464844 275.636719 308.609375 278.789062 308.609375 282.671875 Z M 110.917969 313.144531 C 115.664062 313.144531 119.511719 309.296875 119.511719 304.550781 C 119.511719 299.804688 115.664062 295.957031 110.917969 295.957031 C 106.171875 295.957031 102.324219 299.804688 102.324219 304.550781 C 102.324219 309.296875 106.171875 313.144531 110.917969 313.144531 Z M 196.089844 304.550781 C 196.089844 309.296875 192.242188 313.144531 187.496094 313.144531 C 182.75 313.144531 178.898438 309.296875 178.898438 304.550781 C 178.898438 301.082031 180.953125 298.097656 183.910156 296.734375 L 183.589844 296.734375 L 183.589844 271.847656 C 179.035156 270.238281 175.773438 265.894531 175.773438 260.792969 C 175.773438 254.320312 181.023438 249.070312 187.496094 249.070312 C 193.96875 249.070312 199.214844 254.320312 199.214844 260.792969 C 199.214844 265.597656 196.324219 269.730469 192.183594 271.539062 L 192.183594 296.734375 L 191.082031 296.734375 C 194.039062 298.097656 196.089844 301.082031 196.089844 304.550781 Z M 301.578125 246.726562 C 306.324219 246.726562 310.175781 242.878906 310.175781 238.132812 C 310.175781 233.386719 306.324219 229.535156 301.578125 229.535156 C 296.832031 229.535156 292.984375 233.386719 292.984375 238.132812 C 292.984375 242.878906 296.832031 246.726562 301.578125 246.726562 Z M 81.226562 238.132812 C 81.226562 242.878906 77.378906 246.726562 72.628906 246.726562 C 67.882812 246.726562 64.035156 242.878906 64.035156 238.132812 C 64.035156 233.386719 67.882812 229.535156 72.628906 229.535156 C 77.378906 229.535156 81.226562 233.386719 81.226562 238.132812 Z M 301.578125 202.96875 C 306.324219 202.96875 310.175781 199.121094 310.175781 194.375 C 310.175781 189.625 306.324219 185.777344 301.578125 185.777344 C 296.832031 185.777344 292.984375 189.625 292.984375 194.375 C 292.984375 199.121094 296.832031 202.96875 301.578125 202.96875 Z M 81.226562 194.375 C 81.226562 199.121094 77.378906 202.96875 72.628906 202.96875 C 67.882812 202.96875 64.035156 199.121094 64.035156 194.375 C 64.035156 189.625 67.882812 185.777344 72.628906 185.777344 C 77.378906 185.777344 81.226562 189.625 81.226562 194.375 Z M 301.578125 159.210938 C 306.324219 159.210938 310.175781 155.363281 310.175781 150.617188 C 310.175781 145.867188 306.324219 142.019531 301.578125 142.019531 C 296.832031 142.019531 292.984375 145.867188 292.984375 150.617188 C 292.984375 155.363281 296.832031 159.210938 301.578125 159.210938 Z M 81.226562 150.617188 C 81.226562 155.363281 77.378906 159.210938 72.628906 159.210938 C 67.882812 159.210938 64.035156 155.363281 64.035156 150.617188 C 64.035156 145.867188 67.882812 142.019531 72.628906 142.019531 C 77.378906 142.019531 81.226562 145.867188 81.226562 150.617188 Z M 237.503906 106.074219 C 237.503906 112.550781 232.257812 117.796875 225.785156 117.796875 C 219.3125 117.796875 214.0625 112.550781 214.0625 106.074219 C 214.0625 99.601562 219.3125 94.355469 225.785156 94.355469 C 232.257812 94.355469 237.503906 99.601562 237.503906 106.074219 Z M 149.207031 294.390625 C 155.679688 294.390625 160.929688 289.144531 160.929688 282.671875 C 160.929688 276.199219 155.679688 270.949219 149.207031 270.949219 C 142.734375 270.949219 137.484375 276.199219 137.484375 282.671875 C 137.484375 289.144531 142.734375 294.390625 149.207031 294.390625 Z M 237.503906 282.671875 C 237.503906 289.144531 232.257812 294.390625 225.785156 294.390625 C 219.3125 294.390625 214.0625 289.144531 214.0625 282.671875 C 214.0625 276.199219 219.3125 270.949219 225.785156 270.949219 C 232.257812 270.949219 237.503906 276.199219 237.503906 282.671875 Z M 192.183594 140.386719 C 197.207031 138.492188 200.777344 133.640625 200.777344 127.953125 C 200.777344 120.617188 194.832031 114.671875 187.496094 114.671875 C 180.160156 114.671875 174.210938 120.617188 174.210938 127.953125 C 174.210938 133.933594 178.160156 138.988281 183.589844 140.65625 L 183.589844 157.359375 C 176.847656 159.09375 171.867188 165.210938 171.867188 172.496094 C 171.867188 181.125 178.863281 188.121094 187.496094 188.121094 C 196.125 188.121094 203.125 181.125 203.125 172.496094 C 203.125 165.496094 198.523438 159.574219 192.183594 157.582031 Z M 200.777344 216.253906 C 200.777344 223.589844 194.832031 229.535156 187.496094 229.535156 C 180.160156 229.535156 174.210938 223.589844 174.210938 216.253906 C 174.210938 208.917969 180.160156 202.96875 187.496094 202.96875 C 194.832031 202.96875 200.777344 208.917969 200.777344 216.253906 Z M 239.066406 150.617188 C 239.066406 157.953125 233.121094 163.898438 225.785156 163.898438 C 218.445312 163.898438 212.5 157.953125 212.5 150.617188 C 212.5 143.277344 218.445312 137.332031 225.785156 137.332031 C 233.121094 137.332031 239.066406 143.277344 239.066406 150.617188 Z M 149.207031 163.898438 C 156.542969 163.898438 162.492188 157.953125 162.492188 150.617188 C 162.492188 143.277344 156.542969 137.332031 149.207031 137.332031 C 141.871094 137.332031 135.921875 143.277344 135.921875 150.617188 C 135.921875 157.953125 141.871094 163.898438 149.207031 163.898438 Z M 149.207031 163.898438 " fill-opacity="1" fill-rule="evenodd"/></g></svg>